<svg 
 xmlns="http://www.w3.org/2000/svg"
 xmlns:xlink="http://www.w3.org/1999/xlink"
 width="18px" height="19px">
<path fill-rule="evenodd"  fill="rgb(199, 199, 199)"
 d="M9.000,-0.001 C4.037,-0.001 -0.000,4.261 -0.000,9.499 C-0.000,14.737 4.037,18.999 9.000,18.999 C10.705,18.999 12.365,18.493 13.800,17.536 L13.200,16.532 C11.944,17.369 10.492,17.811 9.000,17.811 C4.658,17.811 1.125,14.083 1.125,9.499 C1.125,4.916 4.658,1.187 9.000,1.187 C13.342,1.187 16.875,4.916 16.875,9.499 L16.875,10.093 C16.875,11.075 16.118,11.874 15.187,11.874 C14.257,11.874 13.500,11.075 13.500,10.093 L13.500,5.936 L12.375,5.936 L12.375,6.391 C11.550,5.394 10.350,4.749 9.000,4.749 C6.519,4.749 4.500,6.880 4.500,9.499 C4.500,12.119 6.519,14.249 9.000,14.249 C10.681,14.249 12.132,13.259 12.905,11.814 C13.415,12.566 14.246,13.062 15.187,13.062 C16.738,13.062 18.000,11.730 18.000,10.093 L18.000,9.499 C18.000,4.261 13.962,-0.001 9.000,-0.001 L9.000,-0.001 ZM9.000,13.062 C7.139,13.062 5.625,11.463 5.625,9.499 C5.625,7.535 7.139,5.936 9.000,5.936 C10.861,5.936 12.375,7.535 12.375,9.499 C12.375,11.463 10.861,13.062 9.000,13.062 L9.000,13.062 Z"/>
</svg>