<svg 
 xmlns="http://www.w3.org/2000/svg"
 xmlns:xlink="http://www.w3.org/1999/xlink"
 width="96px" height="96px">
<defs>
<linearGradient id="PSgrad_0" x1="0%" x2="99.985%" y1="0%" y2="1.745%">
  <stop offset="0%" stop-color="rgb(255,215,130)" stop-opacity="1" />
  <stop offset="100%" stop-color="rgb(255,113,80)" stop-opacity="1" />
</linearGradient>

</defs>
<path fill-rule="evenodd"  fill="rgb(237, 249, 255)"
 d="M48.000,-0.000 C74.510,-0.000 96.000,21.490 96.000,48.000 C96.000,74.510 74.510,96.000 48.000,96.000 C21.490,96.000 -0.000,74.510 -0.000,48.000 C-0.000,21.490 21.490,-0.000 48.000,-0.000 Z"/>
<path fill="url(#PSgrad_0)"
 d="M48.000,-0.000 C74.510,-0.000 96.000,21.490 96.000,48.000 C96.000,74.510 74.510,96.000 48.000,96.000 C21.490,96.000 -0.000,74.510 -0.000,48.000 C-0.000,21.490 21.490,-0.000 48.000,-0.000 Z"/>
<path fill-rule="evenodd"  fill="rgb(255, 255, 255)"
 d="M70.000,71.999 L66.000,71.999 L66.000,47.999 C66.000,46.895 65.104,45.999 64.000,45.999 L32.000,45.999 C30.896,45.999 30.000,46.895 30.000,47.999 L30.000,71.999 L26.000,71.999 C24.896,71.999 24.000,71.103 24.000,69.999 L24.000,40.998 C24.000,40.504 24.242,40.042 24.650,39.763 L47.150,24.262 C47.664,23.910 48.340,23.910 48.852,24.262 L71.352,39.763 C71.758,40.042 72.000,40.504 72.000,40.998 L72.000,69.999 C72.000,71.103 71.104,71.999 70.000,71.999 ZM36.000,61.999 L39.500,61.999 L39.500,63.499 C39.500,64.327 40.172,64.999 41.000,64.999 C41.828,64.999 42.500,64.327 42.500,63.499 L42.500,61.999 L46.000,61.999 C46.552,61.999 47.000,62.447 47.000,62.999 L47.000,70.999 C47.000,71.551 46.552,71.999 46.000,71.999 L36.000,71.999 C35.448,71.999 35.000,71.551 35.000,70.999 L35.000,62.999 C35.000,62.447 35.448,61.999 36.000,61.999 ZM53.000,49.998 C53.552,49.998 54.000,50.447 54.000,50.999 L54.000,58.999 C54.000,59.551 53.552,59.999 53.000,59.999 L43.000,59.999 C42.448,59.999 42.000,59.551 42.000,58.999 L42.000,50.999 C42.000,50.447 42.448,49.998 43.000,49.998 L46.500,49.998 L46.500,51.499 C46.500,52.327 47.172,52.999 48.000,52.999 C48.828,52.999 49.500,52.327 49.500,51.499 L49.500,49.998 L53.000,49.998 ZM50.000,61.999 L53.500,61.999 L53.500,63.499 C53.500,64.327 54.172,64.999 55.000,64.999 C55.828,64.999 56.500,64.327 56.500,63.499 L56.500,61.999 L60.000,61.999 C60.552,61.999 61.000,62.447 61.000,62.999 L61.000,70.999 C61.000,71.551 60.552,71.999 60.000,71.999 L50.000,71.999 C49.448,71.999 49.000,71.551 49.000,70.999 L49.000,62.999 C49.000,62.447 49.448,61.999 50.000,61.999 Z"/>
</svg>