<svg 
 xmlns="http://www.w3.org/2000/svg"
 xmlns:xlink="http://www.w3.org/1999/xlink"
 width="96px" height="96px">
<defs>
<linearGradient id="PSgrad_0" x1="0%" x2="99.985%" y1="0%" y2="1.745%">
  <stop offset="0%" stop-color="rgb(255,215,130)" stop-opacity="1" />
  <stop offset="100%" stop-color="rgb(255,113,80)" stop-opacity="1" />
</linearGradient>

</defs>
<path fill-rule="evenodd"  fill="rgb(237, 249, 255)"
 d="M48.000,-0.000 C74.510,-0.000 96.000,21.490 96.000,48.000 C96.000,74.510 74.510,96.000 48.000,96.000 C21.490,96.000 -0.000,74.510 -0.000,48.000 C-0.000,21.490 21.490,-0.000 48.000,-0.000 Z"/>
<path fill="url(#PSgrad_0)"
 d="M48.000,-0.000 C74.510,-0.000 96.000,21.490 96.000,48.000 C96.000,74.510 74.510,96.000 48.000,96.000 C21.490,96.000 -0.000,74.510 -0.000,48.000 C-0.000,21.490 21.490,-0.000 48.000,-0.000 Z"/>
<path fill-rule="evenodd"  fill="rgb(255, 255, 255)"
 d="M69.213,57.599 C68.971,57.819 68.687,57.992 68.368,58.098 C68.122,58.179 67.861,58.227 67.586,58.227 L67.523,58.227 L53.191,58.227 C51.858,58.227 50.777,57.153 50.777,55.829 L50.777,53.172 L50.777,52.428 L50.777,51.685 L50.777,50.491 C50.777,49.167 51.858,48.092 53.191,48.092 L64.027,48.092 L66.726,48.092 L67.474,48.092 L67.523,48.092 L67.586,48.092 C67.861,48.092 68.122,48.140 68.368,48.222 C68.687,48.332 68.971,48.500 69.213,48.721 C69.696,49.157 70.000,49.790 70.000,50.491 L70.000,55.829 C70.000,56.529 69.696,57.162 69.213,57.599 ZM58.232,52.841 C58.232,52.179 57.691,51.642 57.025,51.642 L56.426,51.642 L56.223,51.642 C55.943,51.642 55.688,51.742 55.480,51.901 C55.195,52.117 55.016,52.457 55.016,52.841 L55.016,53.637 C55.016,54.299 55.557,54.836 56.223,54.836 L57.025,54.836 C57.691,54.836 58.232,54.299 58.232,53.637 L58.232,52.841 ZM66.258,46.428 L65.509,46.428 L53.186,46.428 C53.022,46.428 52.858,46.438 52.699,46.457 C51.742,46.567 50.888,47.008 50.250,47.661 C49.531,48.394 49.087,49.397 49.087,50.500 L49.087,52.150 L49.087,52.893 L49.087,53.637 L49.087,55.834 C49.087,58.083 50.926,59.911 53.191,59.911 L67.518,59.911 L67.518,66.602 C67.518,67.925 66.436,69.000 65.104,69.000 L29.414,69.000 C28.082,69.000 27.000,67.925 27.000,66.602 L27.000,42.903 L27.000,40.169 L27.000,39.881 C27.000,39.665 27.034,39.454 27.087,39.252 C27.174,38.931 27.328,38.638 27.531,38.384 C27.975,37.833 28.656,37.483 29.419,37.483 L30.858,37.483 L31.288,37.483 L33.606,37.483 L36.358,37.483 L57.349,37.483 L63.061,37.483 L63.809,37.483 L64.558,37.483 L65.108,37.483 C66.441,37.483 67.523,38.557 67.518,39.881 L67.518,46.428 L67.006,46.428 L66.258,46.428 ZM42.548,35.804 L54.847,32.470 L58.874,31.377 C59.087,31.319 59.299,31.290 59.512,31.290 C60.574,31.290 61.550,31.991 61.839,33.060 L62.593,35.804 L56.508,35.804 L42.548,35.804 ZM34.702,35.804 L50.048,28.249 C51.240,27.659 52.689,28.149 53.283,29.334 L54.191,31.156 L37.049,35.804 L34.702,35.804 Z"/>
</svg>