<svg 
 xmlns="http://www.w3.org/2000/svg"
 xmlns:xlink="http://www.w3.org/1999/xlink"
 width="96px" height="96px">
<defs>
<linearGradient id="PSgrad_0" x1="0%" x2="99.985%" y1="0%" y2="1.745%">
  <stop offset="0%" stop-color="rgb(255,215,130)" stop-opacity="1" />
  <stop offset="100%" stop-color="rgb(255,113,80)" stop-opacity="1" />
</linearGradient>

</defs>
<path fill-rule="evenodd"  fill="rgb(237, 249, 255)"
 d="M48.000,-0.000 C74.510,-0.000 96.000,21.490 96.000,48.000 C96.000,74.510 74.510,96.000 48.000,96.000 C21.490,96.000 -0.000,74.510 -0.000,48.000 C-0.000,21.490 21.490,-0.000 48.000,-0.000 Z"/>
<path fill="url(#PSgrad_0)"
 d="M48.000,-0.000 C74.510,-0.000 96.000,21.490 96.000,48.000 C96.000,74.510 74.510,96.000 48.000,96.000 C21.490,96.000 -0.000,74.510 -0.000,48.000 C-0.000,21.490 21.490,-0.000 48.000,-0.000 Z"/>
<path fill-rule="evenodd"  fill="rgb(255, 255, 255)"
 d="M27.999,66.550 C28.349,51.864 32.723,59.177 41.838,52.756 C43.025,56.044 54.073,55.941 55.160,52.793 C55.781,53.045 57.640,55.024 62.921,55.952 C66.699,56.616 69.100,57.220 69.002,66.984 C68.924,74.837 27.790,75.321 27.999,66.550 ZM38.846,34.689 C40.224,26.357 49.963,24.999 54.455,28.540 C57.297,30.779 58.633,34.456 57.960,35.330 C57.035,36.531 56.975,37.254 57.116,42.039 C57.154,43.326 57.942,44.107 57.145,44.602 C55.775,45.452 53.625,45.717 53.178,45.033 C51.061,41.793 46.573,44.134 47.552,47.466 C48.150,49.502 50.335,49.963 51.510,49.474 C51.769,49.366 51.626,49.375 54.021,49.701 C46.579,57.966 39.261,45.416 39.581,43.607 C40.022,41.107 39.865,43.825 39.919,37.851 C39.928,36.882 39.631,36.036 39.018,35.284 C38.896,35.135 38.815,34.876 38.846,34.689 ZM61.163,44.525 C58.882,47.816 55.111,48.764 52.208,47.904 C51.209,47.607 50.016,49.139 49.006,47.157 C48.077,45.333 51.306,43.755 52.096,46.188 C52.358,46.998 56.868,47.786 59.682,44.246 C59.710,44.212 59.714,44.158 59.736,44.093 C59.352,43.779 58.545,43.304 58.550,41.988 C58.567,37.596 58.263,36.780 59.553,35.844 C60.901,34.867 56.784,23.560 46.891,25.170 C38.413,26.549 36.572,35.266 37.559,35.940 C38.622,36.667 38.522,37.258 38.461,42.119 C38.424,45.032 34.011,45.002 33.970,42.136 C33.900,37.315 33.775,36.806 34.880,35.904 C35.708,35.230 34.864,28.370 42.626,24.407 C50.765,20.253 60.811,25.772 61.729,34.852 C61.779,35.349 61.828,35.779 62.330,36.104 C63.163,36.643 63.137,37.300 63.046,42.168 C63.014,43.901 61.517,44.014 61.163,44.525 Z"/>
</svg>