<svg xmlns="http://www.w3.org/2000/svg" width="31" height="8.969" viewBox="0 0 31 8.969">
  <defs>
    <style>
      .cls-1 {
        fill: #b0b0b0;
        fill-rule: evenodd;
      }
    </style>
  </defs>
  <path id="Фигура_825" data-name="Фигура 825" class="cls-1" d="M1408.79,730.986h0l-3.67-3.773a0.694,0.694,0,0,0-1,0,0.741,0.741,0,0,0,.01,1.026l2.46,2.534H1378.7a0.726,0.726,0,0,0,0,1.452h27.89l-2.46,2.533a0.742,0.742,0,0,0-.01,1.027,0.694,0.694,0,0,0,1,0l3.67-3.774h0a0.733,0.733,0,0,0,0-1.027h0Zm0,0" transform="translate(-1378 -727.031)"/>
</svg>
