<svg 
 xmlns="http://www.w3.org/2000/svg"
 xmlns:xlink="http://www.w3.org/1999/xlink"
 width="24px" height="25px">
<path fill-rule="evenodd"  fill="rgb(252, 90, 52)"
 d="M23.170,11.098 L17.884,11.098 L17.884,24.274 C17.884,24.517 17.746,24.740 17.529,24.848 C17.437,24.893 17.340,24.916 17.242,24.916 C17.105,24.916 16.969,24.874 16.857,24.787 L9.337,19.154 L1.817,24.787 C1.622,24.936 1.362,24.956 1.144,24.848 C0.927,24.740 0.789,24.517 0.789,24.274 L0.789,4.533 C0.789,2.547 2.407,0.930 4.396,0.930 L20.206,0.930 C22.195,0.930 23.813,2.547 23.813,4.533 L23.813,10.456 C23.813,10.810 23.525,11.098 23.170,11.098 ZM2.074,4.533 L2.074,22.991 L8.952,17.840 C9.179,17.667 9.494,17.667 9.722,17.840 L16.599,22.991 L16.599,10.456 L16.599,4.533 C16.599,3.646 16.934,2.843 17.469,2.214 L4.396,2.214 C3.116,2.214 2.074,3.254 2.074,4.533 ZM22.528,4.533 C22.528,3.254 21.486,2.214 20.206,2.214 C18.925,2.214 17.884,3.254 17.884,4.533 L17.884,9.814 L22.528,9.814 L22.528,4.533 Z"/>
</svg>