<svg 
 xmlns="http://www.w3.org/2000/svg"
 xmlns:xlink="http://www.w3.org/1999/xlink"
 width="41px" height="32px">
<path fill-rule="evenodd"  fill="rgb(252, 90, 52)"
 d="M39.249,26.182 C38.517,26.182 37.796,25.745 37.356,25.017 C36.477,23.127 34.573,21.818 32.229,21.818 C29.445,21.818 27.248,23.709 26.515,26.182 L15.821,26.182 C15.235,23.709 12.891,21.818 10.108,21.818 C7.325,21.818 5.127,23.709 4.395,26.182 L-0.000,26.182 L-0.000,-0.000 L20.509,-0.000 C22.121,-0.000 23.439,1.308 23.439,2.909 L23.439,23.272 L24.904,23.272 L24.904,7.709 C24.904,6.690 25.783,5.818 26.808,5.818 L33.401,5.818 C34.426,5.818 35.451,6.399 35.891,7.273 L40.274,14.690 C40.714,15.563 41.007,16.582 41.007,17.600 L41.007,24.436 C41.154,25.308 40.274,26.182 39.249,26.182 ZM33.694,8.727 L27.834,8.727 L27.834,15.999 L37.942,15.999 L33.694,8.727 ZM10.254,23.272 C12.745,23.272 14.649,25.163 14.649,27.636 C14.649,30.108 12.745,32.000 10.254,32.000 C7.764,32.000 5.860,30.108 5.860,27.636 C5.860,25.163 7.764,23.272 10.254,23.272 ZM10.254,29.672 C11.426,29.672 12.305,28.799 12.305,27.636 C12.305,26.473 11.426,25.600 10.254,25.600 C9.082,25.600 8.204,26.473 8.204,27.636 C8.204,28.799 9.082,29.672 10.254,29.672 ZM10.254,26.909 C10.659,26.909 10.987,27.234 10.987,27.636 C10.987,28.038 10.659,28.363 10.254,28.363 C9.850,28.363 9.522,28.038 9.522,27.636 C9.522,27.234 9.850,26.909 10.254,26.909 ZM32.229,23.272 C34.719,23.272 36.623,25.163 36.623,27.636 C36.623,30.108 34.719,32.000 32.229,32.000 C29.738,32.000 27.834,30.108 27.834,27.636 C27.834,25.163 29.738,23.272 32.229,23.272 ZM32.229,29.672 C33.401,29.672 34.279,28.799 34.279,27.636 C34.279,26.473 33.401,25.600 32.229,25.600 C31.057,25.600 30.178,26.473 30.178,27.636 C30.178,28.799 31.057,29.672 32.229,29.672 ZM32.229,26.909 C32.633,26.909 32.961,27.234 32.961,27.636 C32.961,28.038 32.633,28.363 32.229,28.363 C31.824,28.363 31.496,28.038 31.496,27.636 C31.496,27.234 31.824,26.909 32.229,26.909 Z"/>
</svg>