<svg 
 xmlns="http://www.w3.org/2000/svg"
 xmlns:xlink="http://www.w3.org/1999/xlink"
 width="32px" height="28px">
<path fill-rule="evenodd"  fill="rgb(252, 90, 52)"
 d="M22.603,27.547 C17.692,27.547 13.712,25.754 13.712,23.543 L13.712,22.674 C13.712,22.393 13.776,22.118 13.899,21.854 C14.739,23.672 18.316,25.038 22.603,25.038 C26.889,25.038 30.467,23.672 31.307,21.854 C31.429,22.118 31.494,22.393 31.494,22.674 L31.494,23.543 C31.494,25.754 27.513,27.547 22.603,27.547 ZM22.603,23.076 C17.692,23.076 13.712,21.283 13.712,19.072 L13.712,18.203 C13.712,17.923 13.776,17.648 13.899,17.383 C14.739,19.201 18.316,20.567 22.603,20.567 C26.889,20.567 30.467,19.201 31.307,17.383 C31.429,17.648 31.494,17.922 31.494,18.203 L31.494,19.072 C31.494,21.283 27.513,23.076 22.603,23.076 ZM22.603,18.365 C17.692,18.365 13.712,16.571 13.712,14.360 L13.712,13.491 C13.712,13.210 13.776,12.936 13.899,12.671 C14.739,14.489 18.316,15.855 22.603,15.855 C26.889,15.855 30.467,14.489 31.307,12.671 C31.429,12.936 31.494,13.210 31.494,13.491 L31.494,14.360 C31.494,16.571 27.513,18.365 22.603,18.365 ZM22.603,13.894 C17.692,13.894 13.712,12.100 13.712,9.889 L13.712,9.020 C13.712,8.739 13.776,8.465 13.899,8.200 C14.739,10.018 18.316,11.384 22.603,11.384 C26.889,11.384 30.467,10.018 31.307,8.200 C31.429,8.465 31.494,8.739 31.494,9.020 L31.494,9.889 C31.494,12.100 27.513,13.894 22.603,13.894 ZM22.603,9.423 C17.692,9.423 13.712,7.630 13.712,5.418 L13.712,4.549 C13.712,2.338 17.692,0.545 22.603,0.545 C27.513,0.545 31.494,2.338 31.494,4.549 L31.494,5.418 C31.494,7.630 27.513,9.423 22.603,9.423 ZM0.892,21.141 L0.892,20.273 C0.892,19.993 0.956,19.718 1.079,19.454 C1.919,21.271 5.497,22.637 9.783,22.637 C10.643,22.637 11.474,22.581 12.261,22.479 L12.261,22.674 L12.261,23.543 C12.261,24.029 12.374,24.497 12.593,24.942 C11.709,25.074 10.765,25.146 9.783,25.146 C4.872,25.146 0.892,23.354 0.892,21.141 ZM0.892,16.670 L0.892,15.802 C0.892,15.522 0.956,15.247 1.079,14.983 C1.919,16.801 5.497,18.167 9.783,18.167 C10.643,18.167 11.474,18.111 12.261,18.008 L12.261,20.518 C11.474,20.621 10.643,20.675 9.783,20.675 C4.872,20.675 0.892,18.883 0.892,16.670 ZM0.892,12.200 L0.892,11.332 C0.892,9.120 4.872,7.328 9.783,7.328 C10.643,7.328 11.474,7.382 12.261,7.485 L12.261,16.047 C11.474,16.150 10.643,16.204 9.783,16.204 C4.872,16.204 0.892,14.412 0.892,12.200 Z"/>
</svg>