<svg 
 xmlns="http://www.w3.org/2000/svg"
 xmlns:xlink="http://www.w3.org/1999/xlink"
 width="40px" height="41px">
<path fill-rule="evenodd"  fill="rgb(252, 90, 52)"
 d="M37.219,16.190 C34.548,18.853 30.683,19.601 27.342,18.433 L25.992,19.779 C25.365,19.158 24.533,18.814 23.648,18.814 C23.114,18.814 22.600,18.939 22.137,19.175 L18.649,15.696 L21.578,12.776 C20.331,9.410 21.060,5.481 23.771,2.778 C26.019,0.537 29.111,-0.347 32.026,0.125 C32.347,0.177 32.611,0.402 32.712,0.712 C32.812,1.020 32.730,1.358 32.500,1.588 L30.495,3.587 C28.863,5.216 28.863,7.855 30.495,9.484 C32.128,11.112 34.775,11.112 36.407,9.484 L38.412,7.484 C38.642,7.255 38.982,7.174 39.291,7.273 C39.600,7.373 39.827,7.638 39.880,7.958 C40.353,10.865 39.467,13.949 37.219,16.190 ZM9.109,9.076 L22.024,21.956 L22.749,21.233 C22.997,20.985 23.323,20.861 23.648,20.861 C23.974,20.861 24.299,20.985 24.548,21.233 L36.462,33.116 C38.041,34.690 38.041,37.244 36.462,38.819 C34.883,40.393 32.322,40.393 30.743,38.819 L18.829,26.936 C18.332,26.441 18.332,25.638 18.829,25.142 L19.605,24.368 L6.690,11.488 L6.086,12.091 C5.536,12.640 4.624,12.571 4.163,11.945 L0.282,6.690 C-0.091,6.186 -0.038,5.484 0.407,5.041 L2.644,2.810 C3.089,2.366 3.791,2.314 4.298,2.685 L9.567,6.555 C10.194,7.016 10.262,7.925 9.712,8.474 L9.109,9.076 ZM13.328,21.004 L16.801,24.467 C16.125,25.720 16.316,27.319 17.371,28.377 L6.902,38.819 C5.322,40.393 2.762,40.393 1.183,38.819 C-0.396,37.244 -0.396,34.690 1.183,33.116 L13.328,21.004 Z"/>
</svg>