<svg 
 xmlns="http://www.w3.org/2000/svg"
 xmlns:xlink="http://www.w3.org/1999/xlink"
 width="36px" height="25px">
<path fill-rule="evenodd"  fill="rgb(252, 90, 52)"
 d="M35.044,7.729 C34.873,7.523 34.617,7.401 34.349,7.401 L30.939,7.401 C30.096,5.206 29.001,3.055 27.755,2.243 C23.444,-0.563 12.010,-0.563 7.700,2.243 C6.453,3.055 5.361,5.208 4.515,7.401 L1.105,7.401 C0.834,7.401 0.579,7.523 0.410,7.729 C0.239,7.935 0.171,8.207 0.227,8.469 L0.732,10.888 C0.818,11.301 1.186,11.596 1.610,11.596 L2.620,11.596 C1.645,12.708 1.172,14.110 1.166,15.511 C1.160,17.243 1.825,18.808 3.040,19.916 C3.054,19.927 3.067,19.936 3.080,19.947 L3.080,23.334 C3.080,24.069 3.683,24.666 4.425,24.666 L7.571,24.666 C8.314,24.666 8.916,24.069 8.916,23.334 L8.916,21.973 L26.537,21.973 L26.537,23.334 C26.537,24.069 27.139,24.666 27.882,24.666 L31.027,24.666 C31.769,24.666 32.373,24.069 32.373,23.334 L32.373,20.013 C33.662,18.845 34.279,17.238 34.286,15.632 C34.291,14.183 33.797,12.730 32.765,11.595 L33.842,11.595 C34.268,11.595 34.636,11.300 34.720,10.888 L35.226,8.468 C35.280,8.207 35.214,7.936 35.044,7.729 ZM9.177,4.467 C12.613,2.230 22.841,2.230 26.274,4.467 C26.941,4.901 27.800,6.650 28.587,8.793 L6.866,8.793 C7.651,6.651 8.510,4.901 9.177,4.467 ZM5.153,15.846 C5.153,14.400 6.339,13.228 7.800,13.228 C9.264,13.228 10.448,14.400 10.448,15.846 C10.448,17.292 9.264,18.464 7.800,18.464 C6.339,18.464 5.153,17.292 5.153,15.846 ZM27.688,18.464 C26.226,18.464 25.040,17.292 25.040,15.846 C25.040,14.400 26.226,13.228 27.688,13.228 C29.151,13.228 30.335,14.400 30.335,15.846 C30.335,17.292 29.149,18.464 27.688,18.464 Z"/>
</svg>