<svg 
 xmlns="http://www.w3.org/2000/svg"
 xmlns:xlink="http://www.w3.org/1999/xlink"
 width="29px" height="23px">
<path fill-rule="evenodd"  fill="rgb(34, 34, 34)"
 d="M27.144,7.248 C26.476,6.936 25.697,6.793 24.835,6.791 L23.439,6.791 C23.430,6.737 23.415,6.683 23.393,6.630 L20.863,0.482 C20.701,0.087 20.250,-0.101 19.854,0.061 C19.460,0.223 19.271,0.675 19.433,1.069 L21.789,6.791 L7.591,6.791 L9.947,1.069 C10.109,0.675 9.921,0.223 9.526,0.061 C9.131,-0.101 8.679,0.087 8.517,0.482 L5.987,6.630 C5.965,6.683 5.950,6.737 5.941,6.791 L4.165,6.791 C3.019,6.794 2.006,7.046 1.232,7.619 C0.848,7.904 0.531,8.274 0.319,8.706 C0.106,9.138 -0.001,9.627 -0.001,10.141 C-0.001,10.625 0.091,11.131 0.268,11.657 L0.278,11.685 L3.343,19.745 L3.343,19.745 C3.568,20.405 3.862,20.961 4.239,21.414 C4.812,22.108 5.574,22.526 6.393,22.738 C7.215,22.954 8.105,22.998 9.088,23.000 L19.912,23.000 C21.276,22.998 22.590,22.767 23.716,22.162 C24.841,21.562 25.754,20.556 26.213,19.171 L28.731,11.657 C28.908,11.131 28.999,10.624 28.999,10.140 C29.000,9.627 28.893,9.138 28.680,8.705 C28.362,8.054 27.809,7.556 27.144,7.248 ZM18.567,14.281 L10.702,14.281 L10.702,8.515 C10.702,8.453 10.693,8.394 10.679,8.336 L18.590,8.336 C18.576,8.394 18.567,8.453 18.567,8.515 L18.567,14.281 ZM18.580,21.456 L10.688,21.456 C10.696,21.411 10.702,21.365 10.702,21.318 L10.702,15.825 L18.567,15.825 L18.567,21.318 C18.567,21.365 18.573,21.411 18.580,21.456 ZM1.707,9.387 C1.858,9.084 2.107,8.839 2.513,8.646 C2.917,8.456 3.478,8.335 4.165,8.336 L9.179,8.336 C9.165,8.394 9.156,8.453 9.156,8.515 L9.156,14.281 L2.974,14.281 C2.955,14.281 2.939,14.285 2.921,14.286 L1.733,11.161 C1.601,10.769 1.546,10.427 1.546,10.141 C1.547,9.835 1.606,9.592 1.707,9.387 ZM6.250,21.054 C5.925,20.904 5.665,20.710 5.428,20.427 C5.192,20.143 4.978,19.760 4.799,19.225 L4.789,19.197 L3.506,15.825 L9.156,15.825 L9.156,21.318 C9.156,21.365 9.162,21.411 9.170,21.456 L9.088,21.456 C7.843,21.459 6.891,21.359 6.250,21.054 ZM24.747,18.681 C24.394,19.711 23.799,20.356 22.981,20.803 C22.208,21.222 21.210,21.427 20.100,21.447 C20.107,21.405 20.113,21.362 20.113,21.318 L20.113,15.825 L25.703,15.825 L24.747,18.681 ZM27.265,11.166 L26.221,14.281 L20.113,14.281 L20.113,8.515 C20.113,8.453 20.104,8.394 20.090,8.336 L24.835,8.336 C25.754,8.334 26.437,8.550 26.842,8.857 C27.048,9.010 27.192,9.182 27.293,9.386 C27.393,9.592 27.452,9.835 27.453,10.140 C27.453,10.428 27.398,10.771 27.265,11.166 Z"/>
</svg>