<svg 
 xmlns="http://www.w3.org/2000/svg"
 xmlns:xlink="http://www.w3.org/1999/xlink"
 width="25px" height="16px">
<path fill-rule="evenodd"  fill="rgb(83, 83, 83)"
 d="M24.228,13.848 L22.804,13.848 C22.515,14.974 21.495,15.813 20.274,15.813 C19.052,15.813 18.032,14.974 17.743,13.848 L14.342,13.848 L7.975,13.848 C7.686,14.974 6.666,15.813 5.445,15.813 C4.223,15.813 3.203,14.974 2.914,13.848 L1.490,13.848 C1.135,13.848 0.848,13.562 0.848,13.209 L0.848,2.400 C0.848,1.506 1.579,0.778 2.479,0.778 L13.353,0.778 C14.253,0.778 14.984,1.506 14.984,2.400 L14.984,3.726 L17.308,3.726 C19.039,3.726 20.267,6.453 20.725,7.657 L22.251,7.657 C23.695,7.657 24.870,8.825 24.870,10.261 L24.870,13.209 C24.870,13.562 24.583,13.848 24.228,13.848 ZM5.445,14.535 C6.181,14.535 6.779,13.940 6.779,13.209 C6.779,12.478 6.181,11.883 5.445,11.883 C4.708,11.883 4.110,12.478 4.110,13.209 C4.110,13.940 4.708,14.535 5.445,14.535 ZM13.699,8.296 L13.699,4.365 L13.699,2.400 C13.699,2.214 13.541,2.056 13.353,2.056 L2.479,2.056 C2.291,2.056 2.133,2.214 2.133,2.400 L2.133,12.570 L2.914,12.570 C3.203,11.444 4.223,10.604 5.445,10.604 C6.666,10.604 7.686,11.444 7.975,12.570 L13.699,12.570 L13.699,8.296 ZM20.274,14.535 C21.010,14.535 21.608,13.940 21.608,13.209 C21.608,12.478 21.010,11.883 20.274,11.883 C19.537,11.883 18.939,12.478 18.939,13.209 C18.939,13.940 19.537,14.535 20.274,14.535 ZM17.308,5.004 L14.984,5.004 L14.984,7.657 L19.338,7.657 C18.780,6.361 17.933,5.004 17.308,5.004 ZM23.585,10.261 C23.585,9.530 22.987,8.935 22.251,8.935 L20.274,8.935 L14.984,8.935 L14.984,12.570 L17.743,12.570 C18.032,11.444 19.052,10.604 20.274,10.604 C21.495,10.604 22.515,11.444 22.804,12.570 L23.585,12.570 L23.585,10.261 Z"/>
</svg>