<svg xmlns="http://www.w3.org/2000/svg" width="18" height="24.031" viewBox="0 0 18 24.031">
  <defs>
    <style>
      .cls-1 {
        fill: #fff;
        fill-rule: evenodd;
      }
    </style>
  </defs>
  <path id="Фигура_901" data-name="Фигура 901" class="cls-1" d="M365.32,944.961H348.487a0.6,0.6,0,0,1-.593-0.6v-20.84a0.6,0.6,0,0,1,.593-0.6h1.981a0.6,0.6,0,0,1,0,1.191h-1.387V943.77h15.645V924.121H363.34a0.6,0.6,0,0,1,0-1.191h1.98a0.594,0.594,0,0,1,.593.6v20.84A0.594,0.594,0,0,1,365.32,944.961Zm-3.961-18.855h-8.911a0.594,0.594,0,0,1-.594-0.6v-1.985a2.58,2.58,0,0,1,2.574-2.58h4.951a2.58,2.58,0,0,1,2.574,2.58v1.985A0.594,0.594,0,0,1,361.359,926.106Zm-8.317-1.191h7.723v-1.389a1.389,1.389,0,0,0-1.386-1.389h-4.951a1.389,1.389,0,0,0-1.386,1.389v1.389Zm8.317,6.153h-8.911a0.6,0.6,0,0,1,0-1.191h8.911A0.6,0.6,0,0,1,361.359,931.068Zm0,4.962h-8.911a0.6,0.6,0,0,1,0-1.191h8.911A0.6,0.6,0,0,1,361.359,936.03Z" transform="translate(-347.906 -920.938)"/>
</svg>
