<svg 
 xmlns="http://www.w3.org/2000/svg"
 xmlns:xlink="http://www.w3.org/1999/xlink"
 width="19px" height="14px">
<path fill-rule="evenodd"  fill="rgb(222, 222, 222)"
 d="M18.832,13.075 L12.551,6.999 L18.833,0.921 C18.937,1.132 19.000,1.366 19.000,1.615 L19.000,12.383 C19.000,12.632 18.937,12.863 18.832,13.075 ZM11.370,6.617 L11.370,6.617 L9.463,8.391 L0.954,0.159 C1.172,0.059 1.413,-0.001 1.670,-0.001 L17.330,-0.001 C17.587,-0.001 17.828,0.059 18.046,0.160 L11.370,6.617 C11.370,6.617 11.370,6.617 11.370,6.617 ZM0.167,13.074 C0.063,12.863 -0.000,12.632 -0.000,12.383 L-0.000,1.615 C-0.000,1.364 0.063,1.132 0.167,0.921 L6.449,6.999 L0.167,13.074 ZM9.069,9.533 C9.178,9.639 9.320,9.690 9.463,9.690 C9.605,9.690 9.748,9.639 9.856,9.533 L11.764,7.758 L18.045,13.836 C17.828,13.938 17.587,13.998 17.330,13.998 L1.670,13.998 C1.413,13.998 1.172,13.938 0.954,13.835 L7.236,7.758 L9.069,9.533 Z"/>
</svg>