<svg 
 xmlns="http://www.w3.org/2000/svg"
 xmlns:xlink="http://www.w3.org/1999/xlink"
 width="25px" height="25px">
<path fill-rule="evenodd"  fill="rgb(252, 90, 52)"
 d="M11.250,19.995 L13.750,19.995 L13.750,17.497 L11.250,17.497 L11.250,19.995 ZM12.500,-0.004 C5.600,-0.004 -0.000,5.597 -0.000,12.497 C-0.000,19.396 5.600,24.997 12.500,24.997 C19.400,24.997 25.000,19.396 25.000,12.497 C25.000,5.597 19.400,-0.004 12.500,-0.004 ZM12.500,22.497 C6.987,22.497 2.500,18.010 2.500,12.497 C2.500,6.984 6.987,2.497 12.500,2.497 C18.012,2.497 22.500,6.984 22.500,12.497 C22.500,18.010 18.012,22.497 12.500,22.497 ZM12.500,4.996 C9.737,4.996 7.500,7.233 7.500,9.995 L10.000,9.995 C10.000,8.622 11.125,7.497 12.500,7.497 C13.875,7.497 15.000,8.622 15.000,9.995 C15.000,12.497 11.250,12.185 11.250,16.246 L13.750,16.246 C13.750,13.434 17.500,13.121 17.500,9.995 C17.500,7.233 15.262,4.996 12.500,4.996 Z"/>
</svg>