<svg 
 xmlns="http://www.w3.org/2000/svg"
 xmlns:xlink="http://www.w3.org/1999/xlink"
 width="24px" height="24px">
<path fill-rule="evenodd"  fill="rgb(255, 255, 255)"
 d="M11.994,23.964 C11.730,23.964 11.488,23.814 11.370,23.580 C10.218,21.292 8.188,19.418 6.225,17.607 C3.204,14.819 0.080,11.937 0.034,7.461 C-0.008,3.319 2.484,1.212 4.832,0.622 C7.511,-0.051 10.314,1.023 11.994,3.268 C13.675,1.022 16.473,-0.054 19.157,0.622 C21.505,1.212 23.997,3.319 23.955,7.461 C23.908,11.937 20.785,14.819 17.763,17.607 C15.801,19.418 13.771,21.292 12.619,23.580 C12.501,23.814 12.259,23.964 11.994,23.964 ZM6.402,1.819 C5.973,1.819 5.558,1.870 5.174,1.967 C2.801,2.564 1.401,4.614 1.430,7.448 C1.470,11.327 4.241,13.884 7.175,16.590 C8.921,18.202 10.717,19.859 11.994,21.864 C13.271,19.859 15.067,18.202 16.814,16.590 C19.747,13.884 22.518,11.327 22.558,7.448 C22.588,4.614 21.188,2.564 18.814,1.967 C16.838,1.469 14.054,2.172 12.612,4.890 C12.370,5.344 11.618,5.344 11.377,4.890 C10.214,2.700 8.181,1.819 6.402,1.819 Z"/>
</svg>