<svg 
 xmlns="http://www.w3.org/2000/svg"
 xmlns:xlink="http://www.w3.org/1999/xlink"
 width="20px" height="20px">
<path fill-rule="evenodd"  fill="rgb(0, 155, 203)"
 d="M19.583,10.435 L17.083,10.435 C16.853,10.435 16.667,10.240 16.667,9.999 C16.667,9.759 16.853,9.565 17.083,9.565 L19.583,9.565 C19.814,9.565 20.000,9.759 20.000,9.999 C20.000,10.240 19.814,10.435 19.583,10.435 ZM19.583,3.478 L7.917,3.478 C7.686,3.478 7.500,3.283 7.500,3.043 C7.500,2.802 7.686,2.608 7.917,2.608 L19.583,2.608 C19.814,2.608 20.000,2.802 20.000,3.043 C20.000,3.283 19.814,3.478 19.583,3.478 ZM5.000,6.087 C4.081,6.087 3.333,5.306 3.333,4.348 L3.333,3.478 L0.417,3.478 C0.186,3.478 -0.000,3.283 -0.000,3.043 C-0.000,2.802 0.186,2.608 0.417,2.608 L3.333,2.608 L3.333,1.739 C3.333,0.780 4.081,-0.000 5.000,-0.000 C5.919,-0.000 6.667,0.780 6.667,1.739 L6.667,4.348 C6.667,5.306 5.919,6.087 5.000,6.087 ZM5.833,1.739 C5.833,1.259 5.460,0.869 5.000,0.869 C4.540,0.869 4.167,1.259 4.167,1.739 L4.167,4.348 C4.167,4.827 4.540,5.217 5.000,5.217 C5.460,5.217 5.833,4.827 5.833,4.348 L5.833,1.739 ZM0.417,9.565 L12.500,9.565 L12.500,8.695 C12.500,7.737 13.248,6.956 14.167,6.956 C15.085,6.956 15.833,7.737 15.833,8.695 L15.833,11.304 C15.833,12.263 15.085,13.043 14.167,13.043 C13.248,13.043 12.500,12.263 12.500,11.304 L12.500,10.435 L0.417,10.435 C0.186,10.435 -0.000,10.240 -0.000,9.999 C-0.000,9.759 0.186,9.565 0.417,9.565 ZM13.333,11.304 C13.333,11.784 13.707,12.174 14.167,12.174 C14.626,12.174 15.000,11.784 15.000,11.304 L15.000,8.695 C15.000,8.215 14.626,7.825 14.167,7.825 C13.707,7.825 13.333,8.215 13.333,8.695 L13.333,11.304 ZM0.417,16.522 L0.833,16.522 L0.833,15.652 C0.833,14.693 1.581,13.912 2.500,13.912 C3.419,13.912 4.167,14.693 4.167,15.652 L4.167,18.260 C4.167,19.219 3.419,19.999 2.500,19.999 C1.581,19.999 0.833,19.219 0.833,18.260 L0.833,17.391 L0.417,17.391 C0.186,17.391 -0.000,17.197 -0.000,16.956 C-0.000,16.716 0.186,16.522 0.417,16.522 ZM1.667,18.260 C1.667,18.740 2.040,19.130 2.500,19.130 C2.960,19.130 3.333,18.740 3.333,18.260 L3.333,15.652 C3.333,15.172 2.960,14.782 2.500,14.782 C2.040,14.782 1.667,15.172 1.667,15.652 L1.667,18.260 ZM5.417,16.522 L19.583,16.522 C19.814,16.522 20.000,16.716 20.000,16.956 C20.000,17.197 19.814,17.391 19.583,17.391 L5.417,17.391 C5.186,17.391 5.000,17.197 5.000,16.956 C5.000,16.716 5.186,16.522 5.417,16.522 Z"/>
</svg>