<svg 
 xmlns="http://www.w3.org/2000/svg"
 xmlns:xlink="http://www.w3.org/1999/xlink"
 width="18px" height="21px">
<path fill-rule="evenodd"  fill="rgb(0, 0, 0)"
 d="M16.822,20.173 C16.822,20.173 13.242,20.998 8.966,20.998 C4.691,20.998 1.110,20.173 1.110,20.173 C-0.058,19.936 -0.001,19.314 -0.001,19.314 C0.195,15.567 3.528,14.018 3.528,14.018 C4.325,13.642 5.769,12.906 6.716,12.420 C6.214,11.865 5.860,11.166 5.612,10.515 C6.234,10.959 6.932,11.217 7.534,11.364 C7.621,11.566 7.820,11.708 8.052,11.708 L9.525,11.708 C9.836,11.708 10.089,11.454 10.089,11.138 C10.089,10.823 9.836,10.569 9.525,10.569 L8.052,10.569 C7.899,10.569 7.760,10.630 7.659,10.731 C6.851,10.528 5.867,10.113 5.229,9.268 C5.147,8.926 5.105,8.673 5.088,8.583 C4.835,7.175 4.962,5.434 4.962,5.434 C5.195,2.029 8.618,1.995 8.939,1.999 C8.955,1.999 8.966,1.999 8.966,1.999 C8.966,1.999 8.979,1.999 8.998,1.999 C9.353,1.995 12.738,2.048 12.969,5.434 C12.969,5.434 13.097,7.175 12.844,8.583 C12.788,8.893 12.429,11.080 11.217,12.420 C12.163,12.906 13.607,13.642 14.404,14.018 C14.404,14.018 17.737,15.567 17.932,19.314 C17.932,19.314 17.991,19.936 16.822,20.173 ZM14.115,9.798 L13.760,9.798 L13.760,5.600 C13.760,5.595 13.758,5.588 13.758,5.582 L13.758,4.924 C13.758,3.804 13.416,2.900 12.742,2.234 C11.350,0.858 9.004,0.893 8.976,0.895 C8.936,0.889 6.570,0.869 5.185,2.245 C4.515,2.912 4.176,3.812 4.176,4.924 L4.176,5.545 C4.176,5.556 4.173,5.567 4.172,5.577 L4.172,9.798 L3.817,9.798 C2.942,9.798 2.232,9.081 2.232,8.197 L2.232,6.657 C2.232,5.946 2.692,5.343 3.328,5.135 L3.328,4.924 C3.328,3.572 3.755,2.464 4.595,1.633 C6.237,0.005 8.864,0.038 8.975,0.039 C9.066,0.040 11.691,-0.001 13.334,1.623 C14.177,2.455 14.605,3.567 14.605,4.924 L14.605,5.136 C15.241,5.346 15.701,5.946 15.701,6.658 L15.701,8.197 C15.701,9.081 14.991,9.798 14.115,9.798 Z"/>
</svg>