<svg 
 xmlns="http://www.w3.org/2000/svg"
 xmlns:xlink="http://www.w3.org/1999/xlink"
 width="20px" height="13px">
<path fill-rule="evenodd"  fill="rgb(252, 90, 52)"
 d="M19.583,6.882 L0.417,6.882 C0.186,6.882 -0.000,6.711 -0.000,6.499 C-0.000,6.288 0.186,6.117 0.417,6.117 L19.583,6.117 C19.814,6.117 20.000,6.288 20.000,6.499 C20.000,6.711 19.814,6.882 19.583,6.882 ZM19.583,0.764 L0.417,0.764 C0.186,0.764 -0.000,0.593 -0.000,0.382 C-0.000,0.170 0.186,-0.001 0.417,-0.001 L19.583,-0.001 C19.814,-0.001 20.000,0.170 20.000,0.382 C20.000,0.593 19.814,0.764 19.583,0.764 ZM0.417,12.235 L19.583,12.235 C19.814,12.235 20.000,12.406 20.000,12.617 C20.000,12.829 19.814,12.999 19.583,12.999 L0.417,12.999 C0.186,12.999 -0.000,12.829 -0.000,12.617 C-0.000,12.406 0.186,12.235 0.417,12.235 Z"/>
</svg>