<svg 
 xmlns="http://www.w3.org/2000/svg"
 xmlns:xlink="http://www.w3.org/1999/xlink"
 width="20px" height="17px">
<path fill-rule="evenodd"  fill="rgb(55, 55, 55)"
 d="M19.200,9.444 L0.800,9.444 C0.358,9.444 -0.000,9.022 -0.000,8.500 C-0.000,7.978 0.358,7.555 0.800,7.555 L19.200,7.555 C19.642,7.555 20.000,7.978 20.000,8.500 C20.000,9.022 19.642,9.444 19.200,9.444 ZM19.200,1.888 L0.800,1.888 C0.358,1.888 -0.000,1.466 -0.000,0.944 C-0.000,0.422 0.358,-0.000 0.800,-0.000 L19.200,-0.000 C19.642,-0.000 20.000,0.422 20.000,0.944 C20.000,1.466 19.642,1.888 19.200,1.888 ZM0.800,15.110 L19.200,15.110 C19.642,15.110 20.000,15.533 20.000,16.055 C20.000,16.577 19.642,17.000 19.200,17.000 L0.800,17.000 C0.358,17.000 -0.000,16.577 -0.000,16.055 C-0.000,15.533 0.358,15.110 0.800,15.110 Z"/>
</svg>