<svg 
 xmlns="http://www.w3.org/2000/svg"
 xmlns:xlink="http://www.w3.org/1999/xlink"
 width="25px" height="20px">
<path fill-rule="evenodd"  fill="rgb(65, 149, 175)"
 d="M24.355,11.037 L8.477,11.037 C8.148,11.037 7.882,10.771 7.882,10.443 C7.882,10.115 8.148,9.849 8.477,9.849 L24.355,9.849 C24.684,9.849 24.951,10.115 24.951,10.443 C24.951,10.771 24.684,11.037 24.355,11.037 ZM24.355,4.103 L8.477,4.103 C8.148,4.103 7.882,3.837 7.882,3.509 C7.882,3.181 8.148,2.915 8.477,2.915 L24.355,2.915 C24.684,2.915 24.951,3.181 24.951,3.509 C24.951,3.837 24.684,4.103 24.355,4.103 ZM3.516,19.952 C2.093,19.952 0.935,18.797 0.935,17.377 C0.935,15.957 2.093,14.802 3.516,14.802 C4.938,14.802 6.096,15.957 6.096,17.377 C6.096,18.797 4.938,19.952 3.516,19.952 ZM3.516,15.990 C2.749,15.990 2.126,16.613 2.126,17.377 C2.126,18.141 2.749,18.764 3.516,18.764 C4.282,18.764 4.905,18.141 4.905,17.377 C4.905,16.613 4.282,15.990 3.516,15.990 ZM3.516,13.018 C2.093,13.018 0.935,11.863 0.935,10.443 C0.935,9.023 2.093,7.868 3.516,7.868 C4.938,7.868 6.096,9.023 6.096,10.443 C6.096,11.863 4.938,13.018 3.516,13.018 ZM3.516,9.056 C2.749,9.056 2.126,9.679 2.126,10.443 C2.126,11.207 2.749,11.830 3.516,11.830 C4.282,11.830 4.905,11.207 4.905,10.443 C4.905,9.679 4.282,9.056 3.516,9.056 ZM3.516,6.084 C2.093,6.084 0.935,4.929 0.935,3.509 C0.935,2.089 2.093,0.933 3.516,0.933 C4.938,0.933 6.096,2.089 6.096,3.509 C6.096,4.929 4.938,6.084 3.516,6.084 ZM3.516,2.121 C2.749,2.121 2.126,2.744 2.126,3.509 C2.126,4.273 2.749,4.896 3.516,4.896 C4.282,4.896 4.905,4.273 4.905,3.509 C4.905,2.744 4.282,2.121 3.516,2.121 ZM8.477,16.783 L24.355,16.783 C24.684,16.783 24.951,17.049 24.951,17.377 C24.951,17.705 24.684,17.971 24.355,17.971 L8.477,17.971 C8.148,17.971 7.882,17.705 7.882,17.377 C7.882,17.049 8.148,16.783 8.477,16.783 Z"/>
</svg>