<svg 
 xmlns="http://www.w3.org/2000/svg"
 xmlns:xlink="http://www.w3.org/1999/xlink"
 width="19px" height="25px">
<path fill-rule="evenodd"  fill="rgb(65, 149, 175)"
 d="M18.320,24.961 L1.487,24.961 C1.160,24.961 0.894,24.694 0.894,24.366 L0.894,3.526 C0.894,3.197 1.160,2.930 1.487,2.930 L3.468,2.930 C3.796,2.930 4.061,3.197 4.061,3.526 C4.061,3.855 3.796,4.121 3.468,4.121 L2.081,4.121 L2.081,23.770 L17.726,23.770 L17.726,4.121 L16.340,4.121 C16.012,4.121 15.746,3.855 15.746,3.526 C15.746,3.197 16.012,2.930 16.340,2.930 L18.320,2.930 C18.648,2.930 18.913,3.197 18.913,3.526 L18.913,24.366 C18.913,24.694 18.648,24.961 18.320,24.961 ZM14.359,16.030 L5.448,16.030 C5.120,16.030 4.854,15.763 4.854,15.434 C4.854,15.105 5.120,14.839 5.448,14.839 L14.359,14.839 C14.687,14.839 14.953,15.105 14.953,15.434 C14.953,15.763 14.687,16.030 14.359,16.030 ZM14.359,11.068 L5.448,11.068 C5.120,11.068 4.854,10.801 4.854,10.472 C4.854,10.144 5.120,9.877 5.448,9.877 L14.359,9.877 C14.687,9.877 14.953,10.144 14.953,10.472 C14.953,10.801 14.687,11.068 14.359,11.068 ZM14.359,6.106 L5.448,6.106 C5.120,6.106 4.854,5.840 4.854,5.511 L4.854,3.526 C4.854,2.103 6.009,0.946 7.428,0.946 L12.379,0.946 C13.798,0.946 14.953,2.103 14.953,3.526 L14.953,5.511 C14.953,5.840 14.687,6.106 14.359,6.106 ZM13.765,3.526 C13.765,2.760 13.143,2.137 12.379,2.137 L7.428,2.137 C6.664,2.137 6.042,2.760 6.042,3.526 L6.042,4.915 L13.765,4.915 L13.765,3.526 Z"/>
</svg>