<svg 
 xmlns="http://www.w3.org/2000/svg"
 xmlns:xlink="http://www.w3.org/1999/xlink"
 width="25px" height="24px">
<path fill-rule="evenodd"  fill="rgb(65, 149, 175)"
 d="M22.362,23.965 L3.506,23.965 C3.447,23.965 3.394,23.947 3.341,23.932 C3.232,23.949 3.123,23.965 3.010,23.965 C1.861,23.965 0.926,23.030 0.926,21.882 L0.926,10.473 C0.926,10.144 1.193,9.878 1.521,9.878 L3.903,9.878 L3.903,1.544 C3.903,1.216 4.170,0.949 4.499,0.949 L24.347,0.949 C24.675,0.949 24.942,1.216 24.942,1.544 L24.942,21.386 C24.942,22.808 23.784,23.965 22.362,23.965 ZM3.903,21.386 L3.903,11.068 L2.116,11.068 L2.116,21.882 C2.116,22.374 2.518,22.775 3.010,22.775 C3.502,22.775 3.903,22.374 3.903,21.882 L3.903,21.386 ZM23.751,2.140 L5.094,2.140 L5.094,10.473 L5.094,21.386 L5.094,21.882 C5.094,22.203 5.015,22.503 4.885,22.775 L22.362,22.775 C23.127,22.775 23.751,22.152 23.751,21.386 L23.751,2.140 ZM22.362,20.989 L8.468,20.989 C8.140,20.989 7.873,20.723 7.873,20.394 C7.873,20.065 8.140,19.798 8.468,19.798 L22.362,19.798 C22.690,19.798 22.957,20.065 22.957,20.394 C22.957,20.723 22.690,20.989 22.362,20.989 ZM22.362,18.013 L8.468,18.013 C8.140,18.013 7.873,17.747 7.873,17.418 C7.873,17.089 8.140,16.822 8.468,16.822 L22.362,16.822 C22.690,16.822 22.957,17.089 22.957,17.418 C22.957,17.747 22.690,18.013 22.362,18.013 ZM22.362,13.053 L17.400,13.053 C17.071,13.053 16.805,12.786 16.805,12.457 C16.805,12.128 17.071,11.862 17.400,11.862 L22.362,11.862 C22.690,11.862 22.957,12.128 22.957,12.457 C22.957,12.786 22.690,13.053 22.362,13.053 ZM22.362,10.076 L17.400,10.076 C17.071,10.076 16.805,9.810 16.805,9.481 C16.805,9.152 17.071,8.886 17.400,8.886 L22.362,8.886 C22.690,8.886 22.957,9.152 22.957,9.481 C22.957,9.810 22.690,10.076 22.362,10.076 ZM22.362,7.100 L17.400,7.100 C17.071,7.100 16.805,6.834 16.805,6.505 C16.805,6.176 17.071,5.910 17.400,5.910 L22.362,5.910 C22.690,5.910 22.957,6.176 22.957,6.505 C22.957,6.834 22.690,7.100 22.362,7.100 ZM14.423,13.053 L7.476,13.053 C7.147,13.053 6.881,12.786 6.881,12.457 L6.881,4.521 C6.881,4.192 7.147,3.925 7.476,3.925 L14.423,3.925 C14.751,3.925 15.018,4.192 15.018,4.521 L15.018,12.457 C15.018,12.786 14.751,13.053 14.423,13.053 ZM13.827,5.116 L8.071,5.116 L8.071,11.862 L13.827,11.862 L13.827,5.116 Z"/>
</svg>