<svg 
 xmlns="http://www.w3.org/2000/svg"
 xmlns:xlink="http://www.w3.org/1999/xlink"
 width="24px" height="19px">
<path fill-rule="evenodd"  fill="rgb(0, 155, 203)"
 d="M23.736,18.941 C23.662,18.980 23.581,19.000 23.500,19.000 C23.403,19.000 23.307,18.972 23.223,18.916 L17.349,15.000 L1.500,15.000 C0.673,15.000 -0.000,14.327 -0.000,13.500 L-0.000,1.500 C-0.000,0.673 0.673,-0.000 1.500,-0.000 L22.500,-0.000 C23.327,-0.000 24.000,0.673 24.000,1.500 L24.000,18.500 C24.000,18.684 23.898,18.854 23.736,18.941 ZM23.000,1.500 C23.000,1.224 22.775,1.000 22.500,1.000 L1.500,1.000 C1.224,1.000 1.000,1.224 1.000,1.500 L1.000,13.500 C1.000,13.776 1.224,14.000 1.500,14.000 L17.500,14.000 C17.599,14.000 17.695,14.029 17.777,14.084 L23.000,17.566 L23.000,1.500 ZM4.000,9.500 C4.000,9.223 4.224,9.000 4.500,9.000 L18.500,9.000 C18.776,9.000 19.000,9.223 19.000,9.500 C19.000,9.776 18.776,10.000 18.500,10.000 L4.500,10.000 C4.224,10.000 4.000,9.776 4.000,9.500 ZM18.500,6.000 L4.500,6.000 C4.224,6.000 4.000,5.776 4.000,5.500 C4.000,5.223 4.224,5.000 4.500,5.000 L18.500,5.000 C18.776,5.000 19.000,5.223 19.000,5.500 C19.000,5.776 18.776,6.000 18.500,6.000 Z"/>
</svg>