<svg 
 xmlns="http://www.w3.org/2000/svg"
 xmlns:xlink="http://www.w3.org/1999/xlink"
 width="25px" height="23px">
<path fill-rule="evenodd"  fill="rgb(65, 149, 175)"
 d="M22.370,13.043 L13.686,13.043 L10.883,15.844 C10.769,15.958 10.617,16.018 10.462,16.018 C10.385,16.018 10.308,16.003 10.234,15.973 C10.012,15.881 9.867,15.664 9.867,15.423 L9.867,3.522 C9.867,2.101 11.024,0.944 12.447,0.944 L22.370,0.944 C23.793,0.944 24.951,2.101 24.951,3.522 L24.951,10.465 C24.951,11.886 23.793,13.043 22.370,13.043 ZM23.760,3.522 C23.760,2.757 23.136,2.134 22.370,2.134 L12.447,2.134 C11.681,2.134 11.058,2.757 11.058,3.522 L11.058,13.986 L13.018,12.027 C13.130,11.916 13.281,11.853 13.439,11.853 L22.370,11.853 C23.136,11.853 23.760,11.230 23.760,10.465 L23.760,3.522 ZM20.386,6.994 C20.112,6.994 19.889,6.771 19.889,6.498 C19.889,6.224 20.112,6.002 20.386,6.002 C20.660,6.002 20.882,6.224 20.882,6.498 C20.882,6.771 20.660,6.994 20.386,6.994 ZM17.409,6.994 C17.135,6.994 16.912,6.771 16.912,6.498 C16.912,6.224 17.135,6.002 17.409,6.002 C17.683,6.002 17.905,6.224 17.905,6.498 C17.905,6.771 17.683,6.994 17.409,6.994 ZM14.432,6.994 C14.158,6.994 13.935,6.771 13.935,6.498 C13.935,6.224 14.158,6.002 14.432,6.002 C14.705,6.002 14.928,6.224 14.928,6.498 C14.928,6.771 14.705,6.994 14.432,6.994 ZM8.477,9.076 L3.516,9.076 C2.749,9.076 2.126,9.699 2.126,10.465 L2.126,17.407 C2.126,18.172 2.749,18.795 3.516,18.795 L12.447,18.795 C12.605,18.795 12.756,18.858 12.868,18.969 L14.828,20.929 L14.828,14.431 C14.828,14.103 15.095,13.836 15.424,13.836 C15.753,13.836 16.019,14.103 16.019,14.431 L16.019,22.365 C16.019,22.606 15.874,22.823 15.652,22.915 C15.578,22.945 15.501,22.960 15.424,22.960 C15.269,22.960 15.117,22.900 15.003,22.786 L12.200,19.985 L3.516,19.985 C2.093,19.985 0.935,18.828 0.935,17.407 L0.935,10.465 C0.935,9.043 2.093,7.886 3.516,7.886 L8.477,7.886 C8.806,7.886 9.073,8.152 9.073,8.481 C9.073,8.810 8.806,9.076 8.477,9.076 Z"/>
</svg>