<svg 
 xmlns="http://www.w3.org/2000/svg"
 xmlns:xlink="http://www.w3.org/1999/xlink"
 width="20px" height="20px">
<path fill-rule="evenodd"  fill="rgb(122, 123, 138)"
 d="M13.750,19.999 L6.250,19.999 C2.799,19.999 -0.000,17.199 -0.000,13.748 L-0.000,6.248 C-0.000,2.797 2.799,-0.002 6.250,-0.002 L13.750,-0.002 C17.201,-0.002 20.000,2.797 20.000,6.248 L20.000,13.748 C20.000,17.199 17.201,19.999 13.750,19.999 ZM18.125,6.248 C18.125,3.836 16.162,1.873 13.750,1.873 L6.250,1.873 C3.837,1.873 1.875,3.836 1.875,6.248 L1.875,13.748 C1.875,16.161 3.837,18.123 6.250,18.123 L13.750,18.123 C16.162,18.123 18.125,16.161 18.125,13.748 L18.125,6.248 ZM15.375,5.289 C15.007,5.289 14.709,4.992 14.709,4.624 C14.709,4.255 15.007,3.957 15.375,3.957 C15.743,3.957 16.041,4.255 16.041,4.624 C16.041,4.992 15.743,5.289 15.375,5.289 ZM10.000,14.999 C7.239,14.999 5.000,12.760 5.000,9.999 C5.000,7.237 7.239,4.998 10.000,4.998 C12.761,4.998 15.000,7.237 15.000,9.999 C15.000,12.760 12.761,14.999 10.000,14.999 ZM10.000,6.874 C8.277,6.874 6.875,8.275 6.875,9.999 C6.875,11.721 8.277,13.123 10.000,13.123 C11.722,13.123 13.125,11.721 13.125,9.999 C13.125,8.275 11.722,6.874 10.000,6.874 Z"/>
</svg>