<svg 
 xmlns="http://www.w3.org/2000/svg"
 xmlns:xlink="http://www.w3.org/1999/xlink"
 width="11px" height="14px">
<path fill-rule="evenodd"  fill="#f0673b"
 d="M5.500,-0.002 C2.467,-0.002 -0.000,2.390 -0.000,5.331 C-0.000,6.494 0.379,7.599 1.097,8.527 L5.161,13.833 C5.171,13.845 5.186,13.850 5.198,13.862 C5.401,14.072 5.694,14.019 5.839,13.833 C7.009,12.319 9.154,9.491 9.979,8.426 C9.979,8.426 9.979,8.424 9.979,8.424 L9.984,8.417 C10.649,7.513 11.000,6.444 11.000,5.331 C11.000,2.390 8.532,-0.002 5.500,-0.002 ZM5.500,8.207 C3.867,8.207 2.533,6.914 2.533,5.331 C2.533,3.748 3.867,2.454 5.500,2.454 C7.133,2.454 8.467,3.748 8.467,5.331 C8.467,6.914 7.133,8.207 5.500,8.207 Z"/>
</svg>