<svg 
 xmlns="http://www.w3.org/2000/svg"
 xmlns:xlink="http://www.w3.org/1999/xlink"
 width="15px" height="15px">
<path fill-rule="evenodd"  fill="rgb(0, 155, 203)"
 d="M14.740,14.683 C14.554,14.882 14.288,14.996 14.011,14.996 L0.989,14.996 C0.712,14.996 0.446,14.882 0.260,14.683 C0.072,14.484 -0.019,14.215 0.008,13.946 C0.280,11.344 1.999,9.076 4.495,8.028 C5.137,7.758 5.910,7.942 6.373,8.476 L7.249,9.484 C7.335,9.582 7.443,9.597 7.500,9.597 C7.557,9.597 7.666,9.582 7.752,9.484 L8.627,8.476 C9.091,7.942 9.863,7.759 10.505,8.028 C13.001,9.076 14.721,11.344 14.992,13.946 C15.020,14.215 14.928,14.484 14.740,14.683 ZM10.244,8.607 C9.866,8.447 9.408,8.560 9.129,8.881 L8.253,9.889 C7.878,10.319 7.122,10.319 6.748,9.889 L5.871,8.881 C5.677,8.658 5.396,8.536 5.115,8.536 C4.993,8.536 4.871,8.558 4.757,8.607 C2.478,9.563 0.908,11.634 0.660,14.009 C0.650,14.102 0.681,14.191 0.745,14.260 C0.809,14.328 0.895,14.365 0.989,14.365 L14.011,14.365 C14.105,14.365 14.192,14.328 14.255,14.260 C14.320,14.191 14.350,14.102 14.340,14.009 C14.093,11.634 12.523,9.563 10.244,8.607 ZM7.504,6.668 C7.416,6.668 7.327,6.664 7.237,6.656 C5.733,6.531 4.554,5.231 4.554,3.697 L4.554,2.949 C4.554,1.417 5.733,0.117 7.237,-0.009 C8.077,-0.078 8.875,0.182 9.491,0.726 C10.098,1.263 10.447,2.025 10.447,2.819 L10.447,3.828 C10.447,4.622 10.098,5.385 9.491,5.921 C8.941,6.407 8.244,6.668 7.504,6.668 ZM9.792,2.819 C9.792,2.201 9.521,1.608 9.048,1.191 C8.620,0.813 8.078,0.611 7.502,0.611 C7.433,0.611 7.364,0.614 7.294,0.619 C6.125,0.717 5.209,1.741 5.209,2.949 L5.209,3.697 C5.209,4.906 6.125,5.930 7.294,6.028 C7.949,6.080 8.569,5.879 9.048,5.456 C9.521,5.039 9.792,4.445 9.792,3.828 L9.792,2.819 Z"/>
</svg>