<svg id="лого" xmlns="http://www.w3.org/2000/svg" width="76" height="50" viewBox="0 0 76 50">
  <defs>
    <style>
      .cls-1 {
        fill: #edbb01;
      }

      .cls-1, .cls-2 {
        fill-rule: evenodd;
      }

      .cls-2 {
        fill: #fed000;
      }
    </style>
  </defs>
  <path id="Фигура_5" data-name="Фигура 5" class="cls-1" d="M275.028,112.875V97.94c1.261-.224,2.376-0.507,3.507-0.61a31.642,31.642,0,0,0,15.594-5.91c2.782-1.962,5.5-4.016,8.236-6.042A15.243,15.243,0,0,1,310.621,82V97.078c-6.831.944-11.641,5.638-16.952,9.436-5.063,3.62-10.473,6.254-16.815,6.441C276.392,112.967,275.929,112.916,275.028,112.875ZM275,131.929v-15.08c1.126-.179,2.13-0.407,3.146-0.491a31.42,31.42,0,0,0,15.9-5.938c2.763-1.973,5.5-3.988,8.224-6.011a16.01,16.01,0,0,1,7.908-3.428c0.873,2.364,1.088,9.229.457,14.79a21.043,21.043,0,0,0-2.145.8c-2.916,1.429-5.932,2.7-8.686,4.4-4.073,2.517-7.853,5.516-11.945,8C284.088,131.253,279.794,131.814,275,131.929Zm35.686-12.235V132H291.137l-0.3-.738C297.633,128.088,302.29,121.371,310.685,119.694Z" transform="translate(-275 -82)"/>
  <path id="Фигура_5_копия" data-name="Фигура 5 копия" class="cls-2" d="M350.972,112.875V97.94c-1.261-.224-2.376-0.507-3.507-0.61a31.642,31.642,0,0,1-15.594-5.91c-2.782-1.962-5.5-4.016-8.236-6.042A15.243,15.243,0,0,0,315.379,82V97.078c6.831,0.944,11.641,5.638,16.951,9.436,5.063,3.62,10.474,6.254,16.816,6.441C349.607,112.967,350.071,112.916,350.972,112.875ZM351,131.929v-15.08c-1.126-.179-2.13-0.407-3.146-0.491a31.42,31.42,0,0,1-15.9-5.938c-2.763-1.973-5.5-3.988-8.224-6.011a16.01,16.01,0,0,0-7.908-3.428c-0.873,2.364-1.088,9.229-.457,14.79a21.043,21.043,0,0,1,2.145.8c2.916,1.429,5.932,2.7,8.686,4.4,4.072,2.517,7.853,5.516,11.945,8C341.912,131.253,346.206,131.814,351,131.929Zm-35.686-12.235V132h19.548l0.3-.738C328.367,128.088,323.71,121.371,315.315,119.694Z" transform="translate(-275 -82)"/>
</svg>
