<svg 
 xmlns="http://www.w3.org/2000/svg"
 xmlns:xlink="http://www.w3.org/1999/xlink"
 width="17px" height="16px">
<path fill-rule="evenodd"  fill="rgb(254, 222, 76)"
 d="M16.689,11.547 C16.593,11.635 16.481,11.702 16.355,11.743 C16.257,11.774 16.154,11.793 16.045,11.793 L16.020,11.793 L10.354,11.793 C9.828,11.793 9.400,11.374 9.400,10.858 L9.400,9.820 L9.400,9.531 L9.400,9.240 L9.400,8.773 C9.400,8.258 9.828,7.838 10.354,7.838 L14.638,7.838 L15.705,7.838 L16.001,7.838 L16.020,7.838 L16.045,7.838 C16.154,7.838 16.257,7.858 16.355,7.888 C16.481,7.931 16.593,7.998 16.689,8.084 C16.879,8.254 17.000,8.501 17.000,8.773 L17.000,10.858 C17.000,11.131 16.879,11.378 16.689,11.547 ZM12.347,9.691 C12.347,9.433 12.134,9.223 11.870,9.223 L11.633,9.223 L11.553,9.223 C11.443,9.223 11.341,9.262 11.259,9.324 C11.147,9.409 11.076,9.541 11.076,9.691 L11.076,10.002 C11.076,10.260 11.290,10.469 11.553,10.469 L11.870,10.469 C12.134,10.469 12.347,10.260 12.347,10.002 L12.347,9.691 ZM15.520,7.189 L15.224,7.189 L10.352,7.189 C10.288,7.189 10.223,7.192 10.160,7.199 C9.782,7.243 9.444,7.415 9.192,7.669 C8.907,7.955 8.732,8.347 8.732,8.778 L8.732,9.421 L8.732,9.712 L8.732,10.002 L8.732,10.860 C8.732,11.737 9.459,12.450 10.354,12.450 L16.019,12.450 L16.019,15.062 C16.019,15.578 15.591,15.997 15.064,15.997 L0.954,15.997 C0.427,15.997 -0.000,15.578 -0.000,15.062 L-0.000,5.812 L-0.000,4.746 L-0.000,4.634 C-0.000,4.549 0.013,4.467 0.034,4.388 C0.068,4.263 0.130,4.148 0.210,4.051 C0.385,3.834 0.655,3.697 0.956,3.697 L1.525,3.697 L1.695,3.697 L2.611,3.697 L3.699,3.697 L11.998,3.697 L14.257,3.697 L14.552,3.697 L14.848,3.697 L15.066,3.697 C15.593,3.697 16.020,4.117 16.019,4.634 L16.019,7.189 L15.816,7.189 L15.520,7.189 ZM6.147,3.043 L11.009,1.741 L12.601,1.315 C12.685,1.292 12.769,1.281 12.853,1.281 C13.273,1.281 13.659,1.554 13.773,1.973 L14.071,3.043 L11.666,3.043 L6.147,3.043 ZM3.045,3.043 L9.112,0.095 C9.583,-0.135 10.156,0.055 10.391,0.518 L10.750,1.229 L3.972,3.043 L3.045,3.043 Z"/>
</svg>