<svg xmlns="http://www.w3.org/2000/svg" width="24" height="22.031" viewBox="0 0 24 22.031">
  <defs>
    <style>
      .cls-1 {
        fill: #4195af;
        fill-rule: evenodd;
      }
    </style>
  </defs>
  <path id="Фигура_912" data-name="Фигура 912" class="cls-1" d="M1173.42,946.96a0.611,0.611,0,0,1-.42-0.174l-2.8-2.8h-8.68a2.578,2.578,0,0,1-2.58-2.578v-6.942a2.578,2.578,0,0,1,2.58-2.579h4.96a0.6,0.6,0,0,1,0,1.19h-4.96a1.389,1.389,0,0,0-1.39,1.389v6.942a1.389,1.389,0,0,0,1.39,1.388h8.93a0.607,0.607,0,0,1,.42.174l1.96,1.96v-6.5a0.59,0.59,0,0,1,.59-0.6,0.6,0.6,0,0,1,.6.6v7.934a0.6,0.6,0,0,1-.37.55A0.59,0.59,0,0,1,1173.42,946.96Zm-4.96-6.942a0.669,0.669,0,0,1-.23-0.045,0.592,0.592,0,0,1-.36-0.55v-11.9a2.578,2.578,0,0,1,2.58-2.578h9.92a2.584,2.584,0,0,1,2.58,2.578v6.943a2.584,2.584,0,0,1-2.58,2.578h-8.68l-2.81,2.8A0.577,0.577,0,0,1,1168.46,940.018Zm1.99-13.884a1.389,1.389,0,0,0-1.39,1.388v10.464l1.96-1.959a0.589,0.589,0,0,1,.42-0.174h8.93a1.389,1.389,0,0,0,1.39-1.388v-6.943a1.389,1.389,0,0,0-1.39-1.388h-9.92Zm2.48,4.364a0.5,0.5,0,1,1-.5-0.5A0.5,0.5,0,0,1,1172.93,930.5Zm2.97,0a0.5,0.5,0,1,1-.49-0.5A0.494,0.494,0,0,1,1175.9,930.5Zm2.98,0a0.5,0.5,0,1,1-.49-0.5A0.494,0.494,0,0,1,1178.88,930.5Z" transform="translate(-1158.94 -924.938)"/>
</svg>
