<svg 
 xmlns="http://www.w3.org/2000/svg"
 xmlns:xlink="http://www.w3.org/1999/xlink"
 width="15px" height="15px">
<path fill-rule="evenodd"  fill="rgb(0, 155, 203)"
 d="M14.687,2.516 L13.125,2.516 L13.125,4.087 C13.125,4.261 12.985,4.402 12.812,4.402 C12.640,4.402 12.500,4.261 12.500,4.087 L12.500,2.516 L10.937,2.516 C10.765,2.516 10.625,2.375 10.625,2.201 C10.625,2.027 10.765,1.887 10.937,1.887 L12.500,1.887 L12.500,0.315 C12.500,0.141 12.640,0.001 12.812,0.001 C12.985,0.001 13.125,0.141 13.125,0.315 L13.125,1.887 L14.687,1.887 C14.860,1.887 15.000,2.027 15.000,2.201 C15.000,2.375 14.860,2.516 14.687,2.516 ZM10.625,14.993 L0.312,14.993 C0.140,14.993 -0.000,14.852 -0.000,14.678 C-0.000,12.533 1.939,10.788 4.323,10.788 L6.615,10.788 C8.998,10.788 10.937,12.533 10.937,14.678 C10.937,14.852 10.798,14.993 10.625,14.993 ZM6.615,11.417 L4.323,11.417 C2.404,11.417 0.822,12.713 0.642,14.364 L10.295,14.364 C10.116,12.713 8.533,11.417 6.615,11.417 ZM5.937,8.175 C3.849,8.175 2.500,6.570 2.500,4.087 C2.500,1.605 3.849,0.001 5.937,0.001 C8.026,0.001 9.375,1.605 9.375,4.087 C9.375,6.570 8.026,8.175 5.937,8.175 ZM5.937,0.629 C3.864,0.629 3.125,2.416 3.125,4.087 C3.125,5.760 3.864,7.546 5.937,7.546 C8.011,7.546 8.750,5.760 8.750,4.087 C8.750,2.416 8.011,0.629 5.937,0.629 Z"/>
</svg>