<svg xmlns="http://www.w3.org/2000/svg" width="24" height="19" viewBox="0 0 24 19">
  <defs>
    <style>
      .cls-1 {
        fill: #009bcb;
        fill-rule: evenodd;
      }
    </style>
  </defs>
  <path id="Фигура_937" data-name="Фигура 937" class="cls-1" d="M910.5,946a0.5,0.5,0,0,1-.277-0.084L904.349,942H888.5a1.5,1.5,0,0,1-1.5-1.5v-12a1.5,1.5,0,0,1,1.5-1.5h21a1.5,1.5,0,0,1,1.5,1.5v17A0.5,0.5,0,0,1,910.5,946Zm-22-18a0.5,0.5,0,0,0-.5.5v12a0.5,0.5,0,0,0,.5.5h16a0.5,0.5,0,0,1,.277.084L910,944.566V928.5a0.5,0.5,0,0,0-.5-0.5h-21Zm17,5h-14a0.5,0.5,0,0,1,0-1h14A0.5,0.5,0,0,1,905.5,933Zm0,4h-14a0.5,0.5,0,0,1,0-1h14A0.5,0.5,0,0,1,905.5,937Z" transform="translate(-887 -927)"/>
</svg>
