<svg 
 xmlns="http://www.w3.org/2000/svg"
 xmlns:xlink="http://www.w3.org/1999/xlink"
 width="17px" height="17px">
<path fill-rule="evenodd"  fill="rgb(252, 90, 52)"
 d="M16.753,16.795 C16.619,16.930 16.442,16.997 16.266,16.997 C16.090,16.997 15.913,16.930 15.779,16.795 L12.210,13.217 C10.916,14.296 9.277,14.971 7.467,14.971 C3.349,14.971 -0.000,11.613 -0.000,7.484 C-0.000,3.357 3.349,-0.003 7.467,-0.003 C11.584,-0.003 14.933,3.357 14.933,7.484 C14.933,9.299 14.260,10.943 13.185,12.240 L16.753,15.818 C17.023,16.088 17.023,16.526 16.753,16.795 ZM7.467,1.380 C4.109,1.380 1.378,4.118 1.378,7.484 C1.378,10.850 4.109,13.588 7.467,13.588 C10.824,13.588 13.555,10.850 13.555,7.484 C13.555,4.118 10.824,1.380 7.467,1.380 Z"/>
</svg>