<svg 
 xmlns="http://www.w3.org/2000/svg"
 xmlns:xlink="http://www.w3.org/1999/xlink"
 width="22px" height="22px">
<path fill-rule="evenodd"  fill="rgb(0, 155, 203)"
 d="M21.653,12.820 L18.853,13.517 C18.715,13.953 18.540,14.374 18.332,14.771 L19.819,17.245 C19.928,17.426 19.899,17.657 19.750,17.806 L17.806,19.750 C17.657,19.900 17.426,19.926 17.246,19.819 L14.771,18.332 C14.374,18.540 13.954,18.715 13.517,18.853 L12.820,21.652 C12.769,21.856 12.585,21.999 12.375,21.999 L9.625,21.999 C9.415,21.999 9.231,21.856 9.180,21.652 L8.483,18.853 C8.046,18.715 7.626,18.540 7.229,18.332 L4.754,19.819 C4.574,19.926 4.344,19.900 4.194,19.750 L2.250,17.806 C2.101,17.657 2.072,17.426 2.181,17.245 L3.668,14.771 C3.460,14.374 3.285,13.953 3.147,13.517 L0.347,12.820 C0.143,12.768 -0.000,12.585 -0.000,12.375 L-0.000,9.625 C-0.000,9.414 0.143,9.231 0.347,9.180 L3.147,8.483 C3.285,8.045 3.460,7.626 3.668,7.228 L2.181,4.754 C2.072,4.573 2.101,4.342 2.250,4.194 L4.194,2.249 C4.344,2.100 4.574,2.073 4.754,2.181 L7.229,3.667 C7.626,3.460 8.046,3.285 8.483,3.146 L9.180,0.346 C9.231,0.143 9.415,-0.000 9.625,-0.000 L12.375,-0.000 C12.585,-0.000 12.769,0.143 12.820,0.346 L13.517,3.146 C13.954,3.285 14.374,3.460 14.771,3.667 L17.246,2.181 C17.426,2.073 17.657,2.100 17.806,2.249 L19.750,4.194 C19.899,4.342 19.928,4.573 19.819,4.754 L18.332,7.228 C18.540,7.626 18.715,8.045 18.853,8.483 L21.653,9.180 C21.857,9.231 22.000,9.414 22.000,9.625 L22.000,12.375 C22.000,12.585 21.857,12.768 21.653,12.820 ZM21.083,9.982 L18.378,9.309 C18.219,9.268 18.093,9.146 18.048,8.988 C17.894,8.440 17.677,7.919 17.404,7.441 C17.323,7.300 17.323,7.125 17.405,6.984 C17.417,6.965 17.429,6.946 17.443,6.930 L18.849,4.588 L17.411,3.151 L15.056,4.566 C15.043,4.575 15.030,4.584 15.016,4.592 C14.873,4.675 14.699,4.678 14.558,4.595 C14.080,4.322 13.560,4.106 13.012,3.951 C12.853,3.907 12.731,3.781 12.691,3.621 L12.017,0.916 L9.983,0.916 L9.309,3.621 C9.269,3.781 9.147,3.907 8.988,3.951 C8.440,4.106 7.920,4.322 7.442,4.595 C7.302,4.677 7.127,4.677 6.984,4.594 C6.965,4.583 6.947,4.570 6.930,4.557 L4.589,3.151 L3.151,4.588 L4.557,6.930 C4.571,6.946 4.583,6.965 4.595,6.984 C4.677,7.125 4.677,7.300 4.596,7.441 C4.323,7.919 4.106,8.440 3.952,8.988 C3.907,9.146 3.781,9.268 3.622,9.309 L0.917,9.982 L0.917,12.017 L3.622,12.691 C3.781,12.731 3.907,12.852 3.952,13.012 C4.106,13.560 4.323,14.080 4.596,14.558 C4.677,14.700 4.677,14.874 4.595,15.016 C4.583,15.034 4.571,15.053 4.557,15.070 L3.151,17.411 L4.589,18.848 L6.944,17.434 C6.956,17.424 6.970,17.415 6.984,17.407 C7.126,17.324 7.300,17.320 7.442,17.404 C7.920,17.677 8.440,17.894 8.988,18.047 C9.147,18.092 9.269,18.219 9.309,18.377 L9.983,21.083 L12.017,21.083 L12.691,18.377 C12.731,18.219 12.853,18.092 13.012,18.047 C13.560,17.894 14.080,17.677 14.558,17.404 C14.700,17.323 14.874,17.323 15.016,17.405 C15.035,17.416 15.053,17.428 15.070,17.442 L17.411,18.848 L18.849,17.411 L17.434,15.055 C17.425,15.043 17.416,15.030 17.408,15.016 C17.325,14.874 17.323,14.700 17.404,14.558 C17.677,14.080 17.894,13.560 18.048,13.012 C18.093,12.852 18.219,12.731 18.378,12.691 L21.083,12.017 L21.083,9.982 ZM11.000,15.583 C8.473,15.583 6.417,13.527 6.417,11.000 C6.417,8.472 8.473,6.416 11.000,6.416 C13.527,6.416 15.583,8.472 15.583,11.000 C15.583,13.527 13.527,15.583 11.000,15.583 ZM11.000,7.333 C8.978,7.333 7.333,8.977 7.333,11.000 C7.333,13.022 8.978,14.666 11.000,14.666 C13.022,14.666 14.667,13.022 14.667,11.000 C14.667,8.977 13.022,7.333 11.000,7.333 Z"/>
</svg>