<svg 
 xmlns="http://www.w3.org/2000/svg"
 xmlns:xlink="http://www.w3.org/1999/xlink"
 width="20px" height="20px">
<path fill-rule="evenodd"  fill="rgb(0, 155, 203)"
 d="M10.000,19.999 C6.612,19.999 3.497,18.274 1.667,15.507 L1.667,17.917 C1.667,18.147 1.480,18.333 1.250,18.333 C1.020,18.333 0.833,18.147 0.833,17.917 L0.833,13.750 C0.833,13.519 1.020,13.333 1.250,13.333 L5.417,13.333 C5.647,13.333 5.833,13.519 5.833,13.750 C5.833,13.980 5.647,14.166 5.417,14.166 L1.864,14.166 C3.423,17.210 6.552,19.166 10.000,19.166 C15.054,19.166 19.167,15.054 19.167,10.000 C19.167,9.769 19.353,9.583 19.583,9.583 C19.814,9.583 20.000,9.769 20.000,10.000 C20.000,15.514 15.514,19.999 10.000,19.999 ZM18.750,6.666 L14.583,6.666 C14.353,6.666 14.167,6.480 14.167,6.249 C14.167,6.019 14.353,5.833 14.583,5.833 L18.136,5.833 C16.577,2.789 13.448,0.833 10.000,0.833 C4.945,0.833 0.833,4.945 0.833,10.000 C0.833,10.230 0.647,10.416 0.417,10.416 C0.186,10.416 -0.000,10.230 -0.000,10.000 C-0.000,4.485 4.486,-0.000 10.000,-0.000 C13.388,-0.000 16.503,1.725 18.333,4.492 L18.333,2.083 C18.333,1.852 18.520,1.666 18.750,1.666 C18.980,1.666 19.167,1.852 19.167,2.083 L19.167,6.249 C19.167,6.480 18.980,6.666 18.750,6.666 Z"/>
</svg>