<svg xmlns="http://www.w3.org/2000/svg" width="24" height="19" viewBox="0 0 24 19">
  <defs>
    <style>
      .cls-1 {
        fill: #4195af;
        fill-rule: evenodd;
      }
    </style>
  </defs>
  <path id="Фигура_908" data-name="Фигура 908" class="cls-1" d="M616.355,928.1H600.477a0.594,0.594,0,1,1,0-1.188h15.878A0.594,0.594,0,1,1,616.355,928.1Zm-20.839,1.981a2.576,2.576,0,1,1,2.58-2.575A2.581,2.581,0,0,1,595.516,930.084Zm0-3.963a1.388,1.388,0,1,0,1.389,1.388A1.39,1.39,0,0,0,595.516,926.121Zm20.839,8.916H600.477a0.594,0.594,0,1,1,0-1.188h15.878A0.594,0.594,0,1,1,616.355,935.037Zm-20.839,1.981a2.575,2.575,0,1,1,2.58-2.575A2.581,2.581,0,0,1,595.516,937.018Zm0-3.962a1.387,1.387,0,1,0,1.389,1.387A1.39,1.39,0,0,0,595.516,933.056Zm20.839,8.915H600.477a0.594,0.594,0,1,1,0-1.188h15.878A0.594,0.594,0,1,1,616.355,941.971Zm-20.839,1.981a2.575,2.575,0,1,1,2.58-2.575A2.581,2.581,0,0,1,595.516,943.952Zm0-3.962a1.387,1.387,0,1,0,1.389,1.387A1.39,1.39,0,0,0,595.516,939.99Z" transform="translate(-592.938 -924.938)"/>
</svg>
