<svg 
 xmlns="http://www.w3.org/2000/svg"
 xmlns:xlink="http://www.w3.org/1999/xlink"
 width="23px" height="22px">
<path fill-rule="evenodd"  fill="rgb(255, 243, 188)"
 d="M20.357,18.518 C20.325,18.726 20.202,18.914 20.020,19.024 C19.906,19.093 19.776,19.128 19.646,19.128 C19.567,19.128 19.489,19.115 19.414,19.090 L9.368,15.663 L19.246,3.784 L6.481,14.678 L0.486,12.633 C0.215,12.540 0.024,12.296 0.002,12.008 C-0.019,11.723 0.132,11.452 0.387,11.318 L21.949,0.079 C22.188,-0.047 22.478,-0.025 22.698,0.131 C22.919,0.287 23.032,0.554 22.992,0.821 L20.357,18.518 ZM9.683,21.706 C9.545,21.892 9.329,21.998 9.104,21.998 C9.030,21.998 8.954,21.987 8.880,21.962 C8.585,21.866 8.386,21.591 8.386,21.281 L8.386,16.844 L12.283,18.175 L9.683,21.706 Z"/>
</svg>