<svg 
 xmlns="http://www.w3.org/2000/svg"
 xmlns:xlink="http://www.w3.org/1999/xlink"
 width="28px" height="22px">
<path fill-rule="evenodd"  fill="rgb(254, 208, 0)"
 d="M8.165,21.998 L8.165,15.878 L28.000,15.878 L28.000,21.998 L8.165,21.998 ZM26.359,17.499 L9.805,17.499 L9.805,20.377 L26.359,20.377 L26.359,17.499 ZM8.165,7.939 L28.000,7.939 L28.000,14.057 L8.165,14.057 L8.165,7.939 ZM9.805,12.437 L26.359,12.437 L26.359,9.559 L9.805,9.559 L9.805,12.437 ZM8.165,-0.002 L28.000,-0.002 L28.000,6.117 L8.165,6.117 L8.165,-0.002 ZM9.805,4.496 L26.359,4.496 L26.359,1.619 L9.805,1.619 L9.805,4.496 ZM-0.000,15.878 L6.196,15.878 L6.196,21.998 L-0.000,21.998 L-0.000,15.878 ZM1.641,20.377 L4.555,20.377 L4.555,17.499 L1.641,17.499 L1.641,20.377 ZM-0.000,7.939 L6.196,7.939 L6.196,14.057 L-0.000,14.057 L-0.000,7.939 ZM1.641,12.437 L4.555,12.437 L4.555,9.559 L1.641,9.559 L1.641,12.437 ZM-0.000,-0.002 L6.196,-0.002 L6.196,6.117 L-0.000,6.117 L-0.000,-0.002 ZM1.641,4.496 L4.555,4.496 L4.555,1.619 L1.641,1.619 L1.641,4.496 Z"/>
</svg>