<svg 
 xmlns="http://www.w3.org/2000/svg"
 xmlns:xlink="http://www.w3.org/1999/xlink"
 width="22px" height="22px">
<path fill-rule="evenodd"  fill="rgb(34, 34, 34)"
 d="M21.975,17.609 L21.229,20.941 C21.160,21.270 20.939,21.564 20.609,21.758 C20.308,21.936 19.972,21.995 19.628,21.995 C19.394,21.995 19.155,21.968 18.920,21.933 C14.457,21.259 9.940,18.919 6.528,15.511 C3.143,12.133 0.909,7.849 0.067,3.125 C-0.024,2.618 -0.086,1.966 0.237,1.421 L0.238,1.418 C0.435,1.089 0.725,0.870 1.056,0.801 L4.393,0.056 C5.211,-0.115 6.056,0.441 6.324,1.321 C6.675,2.481 6.960,3.423 7.446,4.416 C7.840,5.224 7.588,6.192 6.873,6.619 L6.074,7.082 C5.967,7.144 5.884,7.254 5.854,7.373 C5.811,8.016 7.880,10.647 9.623,12.388 C11.301,14.062 13.884,16.074 14.539,16.010 C14.648,15.982 14.759,15.898 14.823,15.789 L15.284,14.996 C15.713,14.277 16.683,14.029 17.491,14.422 C18.135,14.736 19.191,15.152 20.038,15.487 C21.269,15.973 21.365,16.017 21.507,16.158 C21.914,16.565 22.085,17.094 21.975,17.609 ZM0.835,1.773 L1.427,2.123 C1.435,2.116 1.441,2.111 1.444,2.109 L0.835,1.773 ZM20.577,17.199 C20.389,17.115 19.935,16.937 19.528,16.776 C18.658,16.432 17.575,16.005 16.884,15.668 C16.704,15.581 16.523,15.628 16.481,15.698 L16.022,16.487 C15.768,16.921 15.346,17.236 14.863,17.356 C13.141,17.797 9.097,13.822 8.642,13.368 C7.876,12.603 4.081,8.708 4.508,7.035 C4.626,6.558 4.943,6.136 5.376,5.884 L6.167,5.426 C6.236,5.385 6.288,5.207 6.198,5.023 C5.663,3.930 5.349,2.891 5.017,1.791 C4.934,1.519 4.749,1.400 4.689,1.410 C4.681,1.411 4.450,1.464 1.425,2.139 C1.388,2.214 1.349,2.406 1.433,2.882 C2.226,7.326 4.327,11.354 7.509,14.531 C10.717,17.734 14.951,19.932 19.127,20.562 C19.278,20.585 19.724,20.653 19.890,20.573 L20.619,17.314 C20.625,17.288 20.609,17.245 20.577,17.199 ZM10.990,2.782 C15.000,2.782 18.264,6.040 18.264,10.044 C18.264,10.427 17.953,10.737 17.570,10.737 C17.186,10.737 16.875,10.427 16.875,10.044 C16.875,6.804 14.235,4.168 10.990,4.168 C10.607,4.168 10.296,3.858 10.296,3.475 C10.296,3.093 10.607,2.782 10.990,2.782 ZM20.357,10.737 C19.974,10.737 19.663,10.427 19.663,10.044 C19.663,5.270 15.772,1.385 10.990,1.385 C10.607,1.385 10.296,1.075 10.296,0.692 C10.296,0.310 10.607,-0.001 10.990,-0.001 C16.537,-0.001 21.051,4.506 21.051,10.044 C21.051,10.427 20.740,10.737 20.357,10.737 Z"/>
</svg>