<svg 
 xmlns="http://www.w3.org/2000/svg"
 xmlns:xlink="http://www.w3.org/1999/xlink"
 width="19px" height="19px">
<path fill-rule="evenodd"  fill="rgb(222, 222, 222)"
 d="M5.880,8.165 C6.355,10.153 8.917,12.615 10.815,13.090 C11.669,13.279 12.618,12.805 12.902,11.953 L12.902,11.953 C13.282,10.723 14.895,10.344 15.844,11.289 L18.501,13.942 C19.165,14.605 19.165,15.740 18.501,16.498 L16.698,18.298 C14.800,20.193 9.771,18.109 5.311,13.657 C0.851,9.206 -1.142,4.188 0.661,2.294 L2.464,0.494 C3.128,-0.170 4.267,-0.170 5.026,0.494 L7.683,3.146 C8.632,4.093 8.253,5.702 7.019,6.081 L7.019,6.081 C6.165,6.365 5.596,7.313 5.880,8.165 Z"/>
</svg>