<svg 
 xmlns="http://www.w3.org/2000/svg"
 xmlns:xlink="http://www.w3.org/1999/xlink"
 width="18px" height="18px">
<path fill-rule="evenodd"  fill="rgb(221, 236, 243)"
 d="M17.527,13.207 L15.010,10.695 C14.111,9.797 12.583,10.157 12.223,11.322 C11.954,12.131 11.055,12.579 10.246,12.399 C8.448,11.951 6.021,9.618 5.571,7.735 C5.302,6.926 5.841,6.030 6.650,5.761 C7.819,5.401 8.178,3.877 7.279,2.979 L4.762,0.468 C4.043,-0.161 2.964,-0.161 2.335,0.468 L0.627,2.171 C-1.081,3.966 0.807,8.721 5.032,12.938 C9.257,17.155 14.021,19.128 15.819,17.334 L17.527,15.631 C18.157,14.910 18.157,13.836 17.527,13.207 Z"/>
</svg>