<svg 
 xmlns="http://www.w3.org/2000/svg"
 xmlns:xlink="http://www.w3.org/1999/xlink"
 width="18px" height="17px">
<path fill-rule="evenodd"  fill="rgb(226, 226, 226)"
 d="M16.562,14.656 L16.210,15.009 L11.984,10.782 L12.336,10.430 C12.901,9.865 13.886,9.866 14.449,10.430 L16.562,12.544 C17.145,13.125 17.147,14.071 16.562,14.656 ZM8.174,15.424 L1.564,8.811 C-0.438,6.808 -0.509,3.623 1.305,1.508 L5.521,5.725 C5.177,6.168 5.190,6.803 5.597,7.210 L9.775,11.391 C10.181,11.797 10.815,11.812 11.260,11.468 L15.477,15.683 C13.242,17.601 10.095,17.346 8.174,15.424 ZM6.206,5.001 L1.980,0.775 L2.332,0.423 C2.897,-0.142 3.882,-0.141 4.445,0.423 L6.558,2.536 C7.141,3.118 7.143,4.064 6.558,4.649 L6.206,5.001 Z"/>
</svg>