<svg 
 xmlns="http://www.w3.org/2000/svg"
 xmlns:xlink="http://www.w3.org/1999/xlink"
 width="17px" height="17px">
<path fill-rule="evenodd"  fill="rgb(122, 123, 138)"
 d="M8.500,-0.002 C3.805,-0.002 -0.000,3.804 -0.000,8.498 C-0.000,13.192 3.805,16.998 8.500,16.998 C13.194,16.998 17.000,13.192 17.000,8.498 C17.000,3.804 13.194,-0.002 8.500,-0.002 ZM12.174,10.115 L8.571,10.115 C8.559,10.115 8.547,10.111 8.535,10.111 C8.523,10.112 8.512,10.115 8.500,10.115 C8.175,10.115 7.912,9.851 7.912,9.527 L7.912,3.525 C7.912,3.202 8.175,2.938 8.500,2.938 C8.824,2.938 9.088,3.202 9.088,3.525 L9.088,8.939 L12.174,8.939 C12.499,8.939 12.762,9.202 12.762,9.527 C12.762,9.851 12.499,10.115 12.174,10.115 Z"/>
</svg>