<svg 
 xmlns="http://www.w3.org/2000/svg"
 xmlns:xlink="http://www.w3.org/1999/xlink"
 width="16px" height="16px">
<path fill-rule="evenodd"  fill="rgb(222, 222, 222)"
 d="M15.429,15.997 L0.571,15.997 C0.255,15.997 -0.000,15.743 -0.000,15.426 C-0.002,13.473 1.248,11.739 3.101,11.125 L5.533,10.314 C5.592,10.293 5.653,10.283 5.714,10.283 L10.286,10.283 C10.347,10.283 10.408,10.293 10.466,10.314 L12.899,11.125 C14.752,11.739 16.002,13.473 16.000,15.426 C16.000,15.743 15.744,15.997 15.429,15.997 ZM8.000,9.142 C6.107,9.139 4.573,7.605 4.571,5.711 L4.571,3.427 C4.571,1.533 6.106,-0.001 8.000,-0.001 C9.893,-0.001 11.429,1.533 11.429,3.427 L11.429,5.711 C11.427,7.605 9.893,9.139 8.000,9.142 Z"/>
</svg>