<svg 
 xmlns="http://www.w3.org/2000/svg"
 xmlns:xlink="http://www.w3.org/1999/xlink"
 width="24px" height="13px">
<path fill-rule="evenodd"  fill="rgb(122, 123, 138)"
 d="M23.785,11.481 C23.721,11.379 23.322,10.564 21.402,8.889 C19.392,7.135 19.662,7.419 22.083,4.385 C23.557,2.539 24.147,1.410 23.962,0.928 C23.787,0.468 22.702,0.589 22.702,0.589 L19.096,0.609 C19.096,0.609 18.829,0.576 18.630,0.687 C18.436,0.797 18.312,1.050 18.312,1.050 C18.312,1.050 17.740,2.481 16.978,3.696 C15.371,6.262 14.728,6.397 14.465,6.237 C13.855,5.867 14.008,4.745 14.008,3.950 C14.008,1.464 14.408,0.427 13.226,0.160 C12.833,0.071 12.545,0.011 11.542,0.001 C10.255,-0.012 9.164,0.006 8.548,0.289 C8.137,0.478 7.820,0.900 8.014,0.924 C8.252,0.953 8.792,1.060 9.079,1.428 C9.449,1.900 9.436,2.963 9.436,2.963 C9.436,2.963 9.649,5.889 8.939,6.253 C8.452,6.503 7.784,5.993 6.352,3.665 C5.618,2.474 5.063,1.155 5.063,1.155 C5.063,1.155 4.957,0.910 4.766,0.779 C4.535,0.620 4.211,0.568 4.211,0.568 L0.782,0.588 C0.782,0.588 0.267,0.602 0.078,0.813 C-0.090,0.999 0.065,1.386 0.065,1.386 C0.065,1.386 2.750,7.291 5.789,10.268 C8.578,12.996 11.743,12.817 11.743,12.817 L13.177,12.817 C13.177,12.817 13.610,12.773 13.831,12.548 C14.035,12.342 14.027,11.956 14.027,11.956 C14.027,11.956 13.999,10.147 14.893,9.880 C15.773,9.618 16.905,11.629 18.103,12.403 C19.009,12.988 19.698,12.860 19.698,12.860 L22.903,12.817 C22.903,12.817 24.580,12.721 23.785,11.481 Z"/>
</svg>