<svg 
 xmlns="http://www.w3.org/2000/svg"
 xmlns:xlink="http://www.w3.org/1999/xlink"
 width="22px" height="15px">
<path fill-rule="evenodd"  fill="rgb(122, 123, 138)"
 d="M21.065,1.444 C20.468,0.391 19.820,0.197 18.502,0.125 C17.185,0.036 13.872,-0.002 11.003,-0.002 C8.127,-0.002 4.814,0.036 3.498,0.123 C2.182,0.197 1.533,0.389 0.931,1.444 C0.316,2.495 -0.000,4.306 -0.000,7.495 C-0.000,7.498 -0.000,7.499 -0.000,7.499 C-0.000,7.501 -0.000,7.502 -0.000,7.502 L-0.000,7.505 C-0.000,10.680 0.316,12.505 0.931,13.545 C1.533,14.597 2.181,14.789 3.497,14.877 C4.814,14.954 8.127,14.998 11.003,14.998 C13.872,14.998 17.185,14.954 18.503,14.879 C19.822,14.790 20.469,14.599 21.066,13.546 C21.686,12.506 22.000,10.681 22.000,7.506 C22.000,7.506 22.000,7.502 22.000,7.500 C22.000,7.500 22.000,7.498 22.000,7.496 C22.000,4.306 21.686,2.495 21.065,1.444 ZM8.250,11.589 L8.250,3.408 L15.125,7.499 L8.250,11.589 Z"/>
</svg>